<?xml version="1.0" encoding="utf-8"?>
<!-- Generator: Adobe Illustrator 19.2.1, SVG Export Plug-In . SVG Version: 6.00 Build 0)  -->
<svg version="1.1" id="Capa_1" xmlns="http://www.w3.org/2000/svg" xmlns:xlink="http://www.w3.org/1999/xlink" x="0px" y="0px"
	 viewBox="0 0 399.6 1181.9" style="enable-background:new 0 0 399.6 1181.9;" xml:space="preserve">
<style type="text/css">
	.st0{fill:#FFF0EC;enable-background:new    ;}
</style>
<path class="st0" d="M93.8,341.8L93.8,341.8c60.6,60.6,158.9,60.6,219.5,0L594.4,60.7c60.6-60.6,60.6-158.9,0-219.5l0,0
	c-60.6-60.6-158.9-60.6-219.5,0L93.8,122.3C33.1,182.9,33.1,281.2,93.8,341.8z"/>
<path class="st0" d="M204.4,981L204.4,981c48.3,48.3,126.7,48.3,175,0l224.2-224.2c48.3-48.3,48.3-126.7,0-175l0,0
	c-48.3-48.3-126.7-48.3-175,0L204.4,806C156.1,854.3,156.1,932.7,204.4,981z"/>
</svg>
